<?xml version="1.0" encoding="iso-8859-1"?>
<!-- Uploaded to: SVG Repo, www.svgrepo.com, Generator: SVG Repo Mixer Tools -->
<svg fill="#ffffff" height="800px" width="800px" version="1.1" id="Layer_1" xmlns="http://www.w3.org/2000/svg" xmlns:xlink="http://www.w3.org/1999/xlink" 
	 viewBox="0 0 512.001 512.001" xml:space="preserve">
<g>
	<g>
		<path d="M 344.4 143.8 C 254.8 56 102.4 103.8 79.8 227.7 c -31.8 4.6 -59.1 25.4 -72 55.1 c 0 0 0 0.1 0 0.1 c -26.7 61.6 18.8 130.2 85.5 130.2 h 282.3 c 75.2 0 136.5 -61.2 136.5 -136.5 C 512 189.2 430.3 123.7 344.4 143.8 z M 375.5 381.1 H 93.3 c -69.2 0 -84.5 -98.3 -18.7 -119.5 c 14.8 -4.7 43 -7.3 74.4 21.9 c 6.5 6 16.6 5.7 22.6 -0.8 c 6 -6.5 5.7 -16.6 -0.8 -22.6 c -17.9 -16.7 -38.1 -27.3 -58.5 -31.5 c 22 -99.1 147.4 -131.9 215.2 -56.3 c 4.2 4.7 10.7 6.5 16.7 4.6 c 67.3 -21.1 135.8 29.4 135.8 99.7 C 480 334.3 433.1 381.1 375.5 381.1 z"/>
		<ellipse cx="245.6" cy="269.5" rx="153.4" ry="140.2" fill="rgb(255, 255, 255)"/>
		<ellipse cx="121.6" cy="317.2" rx="110.1" ry="86.8" fill="rgb(255, 255, 255)"/>
		<ellipse cx="373.1" cy="279.7" rx="124.2" ry="116.5" fill="rgb(255, 255, 255)"/>
	</g>
</g>
    
</svg>